<?xml version="1.0" encoding="utf-8"?>
<!-- Generator: Adobe Illustrator 27.7.0, SVG Export Plug-In . SVG Version: 6.00 Build 0)  -->
<svg version="1.1" id="Livello_1" xmlns="http://www.w3.org/2000/svg" xmlns:xlink="http://www.w3.org/1999/xlink" x="0px" y="0px"
	 viewBox="0 0 599.2 91.4" style="enable-background:new 0 0 599.2 91.4;" xml:space="preserve">
<style type="text/css">
	.st0{fill:#CF1324;}
	.st1{fill:#EA5D0C;}
	.st2{fill:#F28F3C;}
	.st3{fill:#22263F;}
	.st4{fill:#FFFFFF;}
</style>
<g>
	<g>
		<path class="st0" d="M40.3,14.3C57.2,14.3,71,28,71,45S57.2,75.6,40.3,75.6S9.6,61.9,9.6,45C9.6,28,23.4,14.3,40.3,14.3"/>
		<g>
			<path class="st1" d="M22.3,30.2c1.6-1.8,3.5-3.3,5.7-4.4c-4-4.7-7.3-7-8.7-7.6C18,22,19.5,28,20.8,32.1
				C21.3,31.5,21.8,30.8,22.3,30.2"/>
			<path class="st1" d="M58.2,30.2c0.5,0.5,0.9,1,1.3,1.6c1.3-4.1,2.7-9.9,1.5-13.6c-1.4,0.5-4.6,2.9-8.6,7.5
				C54.5,26.8,56.5,28.4,58.2,30.2"/>
			<path class="st2" d="M58.2,30.2c-1.7-1.9-3.7-3.4-5.9-4.5c4-4.6,7.2-6.9,8.6-7.5c1.2,3.7-0.1,9.5-1.5,13.6
				C59,31.3,58.6,30.8,58.2,30.2L58.2,30.2z M22.3,30.2c-0.5,0.6-1,1.2-1.5,1.9C19.5,28,18,22,19.3,18.2c1.4,0.5,4.7,2.9,8.7,7.6
				C25.8,26.9,23.9,28.4,22.3,30.2 M64.4,49c-0.7-5.1-1.9-9.5-3.7-13.1c1.5-3.5,2.5-7.1,3-10.9c0.3-3,0.2-6.1-0.9-8.6
				c-0.3-0.5-0.9-0.9-1.5-0.7c-1.1,0.2-2.8,0.9-5.3,2.8c-2.5,2.1-4.8,4.5-6.8,7.1c-2.9-0.9-5.8-1.3-8.8-1.3l0,0c-0.1,0-0.1,0-0.1,0
				c-0.1,0-0.1,0-0.1,0l0,0c-3.1,0-6.1,0.5-9.1,1.4c-2-2.7-4.3-5.1-6.9-7.2c-2.5-1.9-4.3-2.6-5.3-2.8c-0.6-0.1-1.2,0.2-1.5,0.7
				c-1.1,2.5-1.3,5.6-0.9,8.5c0.5,3.9,1.6,7.7,3.1,11.3C18,39.8,16.9,44,16.2,49c-0.1,0.7-0.1,1.5-0.1,2.3c2.3-0.7,9.6-2.5,14.7,3.3
				c1.1-4.3,5-7.3,9.4-7.1l0,0c1.6,0,3.1,0.3,4.5,1c2.4,1.3,4.2,3.5,4.9,6.1c5.1-5.9,12.7-4,14.8-3.3C64.5,50.6,64.4,49.8,64.4,49"
				/>
			<path class="st3" d="M47,60.3c-0.3,0.5-0.4,1-0.4,1.6c0,0.2-0.2,0.3-0.3,0.3H46l-0.9,2.1c0,0.1-0.1,0.1-0.1,0.1
				c-0.1,0-0.1,0-0.1-0.1c-0.1-0.2-0.3-0.4-0.4-0.6c0-0.1-0.1-0.1-0.1-0.1v-2.4c-1.4,0.2-2.7,0.3-4.1,0.3h-0.1
				c-1.4,0-2.8-0.1-4.1-0.3v2.4c0,0.1,0,0.1-0.1,0.1c-0.1,0.2-0.3,0.4-0.4,0.6c-0.1,0.1-0.1,0.1-0.2,0c0,0,0-0.1-0.1-0.1l-0.8-2.1
				h-0.3c-0.2,0-0.3-0.1-0.3-0.3c0-0.5-0.1-1.1-0.4-1.6c-0.1-0.1,0-0.2,0.1-0.3h0.1c0.7,0,2.1-0.1,2.3,0h2.5c0.3-0.4,0.6-0.7,1-0.8
				v-1.7c-2.9-0.4-3.3-3.1-3.3-4.7c0-0.7,0.5-1.2,1.2-1.2h5.5c0.7,0,1.2,0.5,1.2,1.2c0.1,1.6-0.3,4.3-3.3,4.7v1.7
				c0.4,0.1,0.8,0.5,1,0.8h2.5c0.3,0,1.7,0,2.3,0c0.1,0,0.2,0.1,0.2,0.2C47,60.3,47,60.3,47,60.3"/>
			<path class="st4" d="M47,60.3c-0.3,0.5-0.4,1-0.4,1.6c0,0.2-0.1,0.3-0.3,0.3H46l-0.9,2.1c0,0.1-0.1,0.1-0.1,0.1
				c-0.1,0-0.1,0-0.1-0.1c-0.1-0.2-0.3-0.4-0.4-0.6c0-0.1-0.1-0.1-0.1-0.1v-2.4c-1.4,0.2-2.7,0.3-4.1,0.3h-0.1
				c-1.4,0-2.8-0.1-4.1-0.3v2.4c0,0.1,0,0.1-0.1,0.1c-0.1,0.2-0.3,0.4-0.4,0.6c-0.1,0.1-0.1,0.1-0.2,0c0,0,0,0,0-0.1l-0.8-2.1h-0.3
				c-0.2,0-0.3-0.1-0.3-0.3c0-0.5-0.1-1.1-0.4-1.6c-0.1-0.1,0-0.2,0.1-0.3h0.1c0.7,0,2.1-0.1,2.3,0h2.5c0.3-0.4,0.6-0.7,1-0.8v-1.7
				c-2.9-0.4-3.3-3.1-3.3-4.7c0-0.7,0.5-1.2,1.2-1.2H43c0.7,0,1.2,0.5,1.2,1.2c0.1,1.6-0.3,4.3-3.3,4.7v1.7c0.4,0.1,0.8,0.5,1,0.8
				h2.5c0.3,0,1.7,0,2.3,0c0.1,0,0.2,0.1,0.2,0.2C47,60.3,47,60.3,47,60.3L47,60.3z M43.2,62.9c0,0.3-0.2,0.7-0.5,0.8
				c-0.1,0-0.1,0-0.2,0c-0.5,0-0.5-0.5-0.9-0.5c-0.5,0-0.6,1.4-1.3,1.4l0,0l0,0l0,0l0,0l0,0l0,0c-0.7-0.1-0.8-1.4-1.2-1.4
				c-0.5,0-0.5,0.5-0.9,0.5c-0.1,0-0.1,0-0.2,0c-0.3-0.1-0.6-0.4-0.5-0.8v-0.4h5.9L43.2,62.9z M64.4,51.4c-2.1-0.7-9.7-2.7-14.8,3.3
				c-0.7-2.7-2.5-4.9-4.9-6.1c-1.4-0.7-3-1-4.5-1l0,0c-4.4-0.1-8.3,2.8-9.4,7.1c-5.1-5.9-12.5-4.1-14.7-3.3l0,0
				c0.1,1.9,0.8,3.8,1.9,5.3c6.6,9.1,15.9,12.5,22.2,12.6l0,0h0.1v-0.1l0,0v0.1h0.1c0.1,0,0.1,0,0.1,0l0,0c2-0.1,4-0.3,5.9-0.9
				c6.6-1.9,12.3-6.1,16.3-11.7C63.6,55.2,64.3,53.3,64.4,51.4L64.4,51.4"/>
			<path class="st3" d="M43.2,62.4v0.4c0,0.3-0.2,0.7-0.5,0.8c-0.1,0-0.1,0-0.2,0c-0.5,0-0.5-0.5-0.9-0.5c-0.5,0-0.6,1.4-1.3,1.4
				l0,0l0,0l0,0l0,0l0,0l0,0c-0.7-0.1-0.8-1.4-1.2-1.4c-0.5,0-0.5,0.5-0.9,0.5c-0.1,0-0.1,0-0.2,0c-0.3-0.1-0.6-0.4-0.5-0.8v-0.4
				H43.2z"/>
			<path class="st3" d="M54.6,42.6l-0.3-2.1c0-0.3-0.3-0.7-0.7-0.7c-0.1,0-0.1,0-0.2,0.1c-2.3,0.9-8.8,3.8-8.1,5.7
				c0.7,1.3,6-0.1,8.6-1.9C54.4,43.4,54.6,43,54.6,42.6"/>
			<path class="st3" d="M26,42.6l0.3-2.1c0-0.3,0.3-0.7,0.7-0.7c0.1,0,0.1,0,0.2,0.1c2.3,0.9,8.8,3.8,8.1,5.7
				c-0.7,1.3-6-0.1-8.6-1.9C26.2,43.4,26,43,26,42.6"/>
			<path class="st4" d="M34.7,39.2c-1.3-0.1-4-0.4-4.9-0.9c-1.1-0.7-0.7-3.9,3.4-3.5c3.1,0.3,3.5,2.5,2.9,3.7
				C35.8,38.9,35.3,39.2,34.7,39.2"/>
			<path class="st4" d="M45.9,39.2c1.3-0.1,4-0.4,4.9-0.9c1.1-0.7,0.7-3.9-3.4-3.5c-3.1,0.3-3.5,2.5-2.9,3.7
				C44.8,38.9,45.3,39.2,45.9,39.2"/>
		</g>
		<path class="st0" d="M40.3,14.3C57.2,14.3,71,28,71,45S57.2,75.6,40.3,75.6S9.6,61.9,9.6,45C9.6,28,23.4,14.3,40.3,14.3"/>
		<g>
			<path class="st1" d="M22.3,30.2c1.6-1.8,3.5-3.3,5.7-4.4c-4-4.7-7.3-7-8.7-7.6C18,22,19.5,28,20.8,32.1
				C21.3,31.5,21.8,30.8,22.3,30.2"/>
			<path class="st1" d="M58.2,30.2c0.5,0.5,0.9,1,1.3,1.6c1.3-4.1,2.7-9.9,1.5-13.6c-1.4,0.5-4.6,2.9-8.6,7.5
				C54.5,26.8,56.5,28.4,58.2,30.2"/>
			<path class="st2" d="M58.2,30.2c-1.7-1.9-3.7-3.4-5.9-4.5c4-4.6,7.2-6.9,8.6-7.5c1.2,3.7-0.1,9.5-1.5,13.6
				C59,31.3,58.6,30.8,58.2,30.2L58.2,30.2z M22.3,30.2c-0.5,0.6-1,1.2-1.5,1.9C19.5,28,18,22,19.3,18.2c1.4,0.5,4.7,2.9,8.7,7.6
				C25.8,26.9,23.9,28.4,22.3,30.2 M64.4,49c-0.7-5.1-1.9-9.5-3.7-13.1c1.5-3.5,2.5-7.1,3-10.9c0.3-3,0.2-6.1-0.9-8.6
				c-0.3-0.5-0.9-0.9-1.5-0.7c-1.1,0.2-2.8,0.9-5.3,2.8c-2.5,2.1-4.8,4.5-6.8,7.1c-2.9-0.9-5.8-1.3-8.8-1.3l0,0c-0.1,0-0.1,0-0.1,0
				c-0.1,0-0.1,0-0.1,0l0,0c-3.1,0-6.1,0.5-9.1,1.4c-2-2.7-4.3-5.1-6.9-7.2c-2.5-1.9-4.3-2.6-5.3-2.8c-0.6-0.1-1.2,0.2-1.5,0.7
				c-1.1,2.5-1.3,5.6-0.9,8.5c0.5,3.9,1.6,7.7,3.1,11.3C18,39.8,16.9,44,16.2,49c-0.1,0.7-0.1,1.5-0.1,2.3c2.3-0.7,9.6-2.5,14.7,3.3
				c1.1-4.3,5-7.3,9.4-7.1l0,0c1.6,0,3.1,0.3,4.5,1c2.4,1.3,4.2,3.5,4.9,6.1c5.1-5.9,12.7-4,14.8-3.3C64.5,50.6,64.4,49.8,64.4,49"
				/>
			<path class="st3" d="M47,60.3c-0.3,0.5-0.4,1-0.4,1.6c0,0.2-0.2,0.3-0.3,0.3H46l-0.9,2.1c0,0.1-0.1,0.1-0.1,0.1
				c-0.1,0-0.1,0-0.1-0.1c-0.1-0.2-0.3-0.4-0.4-0.6c0-0.1-0.1-0.1-0.1-0.1v-2.4c-1.4,0.2-2.7,0.3-4.1,0.3h-0.1
				c-1.4,0-2.8-0.1-4.1-0.3v2.4c0,0.1,0,0.1-0.1,0.1c-0.1,0.2-0.3,0.4-0.4,0.6c-0.1,0.1-0.1,0.1-0.2,0c0,0,0-0.1-0.1-0.1l-0.8-2.1
				h-0.3c-0.2,0-0.3-0.1-0.3-0.3c0-0.5-0.1-1.1-0.4-1.6c-0.1-0.1,0-0.2,0.1-0.3h0.1c0.7,0,2.1-0.1,2.3,0h2.5c0.3-0.4,0.6-0.7,1-0.8
				v-1.7c-2.9-0.4-3.3-3.1-3.3-4.7c0-0.7,0.5-1.2,1.2-1.2h5.5c0.7,0,1.2,0.5,1.2,1.2c0.1,1.6-0.3,4.3-3.3,4.7v1.7
				c0.4,0.1,0.8,0.5,1,0.8h2.5c0.3,0,1.7,0,2.3,0c0.1,0,0.2,0.1,0.2,0.2C47,60.3,47,60.3,47,60.3"/>
			<path class="st4" d="M47,60.3c-0.3,0.5-0.4,1-0.4,1.6c0,0.2-0.1,0.3-0.3,0.3H46l-0.9,2.1c0,0.1-0.1,0.1-0.1,0.1
				c-0.1,0-0.1,0-0.1-0.1c-0.1-0.2-0.3-0.4-0.4-0.6c0-0.1-0.1-0.1-0.1-0.1v-2.4c-1.4,0.2-2.7,0.3-4.1,0.3h-0.1
				c-1.4,0-2.8-0.1-4.1-0.3v2.4c0,0.1,0,0.1-0.1,0.1c-0.1,0.2-0.3,0.4-0.4,0.6c-0.1,0.1-0.1,0.1-0.2,0c0,0,0,0,0-0.1l-0.8-2.1h-0.3
				c-0.2,0-0.3-0.1-0.3-0.3c0-0.5-0.1-1.1-0.4-1.6c-0.1-0.1,0-0.2,0.1-0.3h0.1c0.7,0,2.1-0.1,2.3,0h2.5c0.3-0.4,0.6-0.7,1-0.8v-1.7
				c-2.9-0.4-3.3-3.1-3.3-4.7c0-0.7,0.5-1.2,1.2-1.2H43c0.7,0,1.2,0.5,1.2,1.2c0.1,1.6-0.3,4.3-3.3,4.7v1.7c0.4,0.1,0.8,0.5,1,0.8
				h2.5c0.3,0,1.7,0,2.3,0c0.1,0,0.2,0.1,0.2,0.2C47,60.3,47,60.3,47,60.3L47,60.3z M43.2,62.9c0,0.3-0.2,0.7-0.5,0.8
				c-0.1,0-0.1,0-0.2,0c-0.5,0-0.5-0.5-0.9-0.5c-0.5,0-0.6,1.4-1.3,1.4l0,0l0,0l0,0l0,0l0,0l0,0c-0.7-0.1-0.8-1.4-1.2-1.4
				c-0.5,0-0.5,0.5-0.9,0.5c-0.1,0-0.1,0-0.2,0c-0.3-0.1-0.6-0.4-0.5-0.8v-0.4h5.9L43.2,62.9z M64.4,51.4c-2.1-0.7-9.7-2.7-14.8,3.3
				c-0.7-2.7-2.5-4.9-4.9-6.1c-1.4-0.7-3-1-4.5-1l0,0c-4.4-0.1-8.3,2.8-9.4,7.1c-5.1-5.9-12.5-4.1-14.7-3.3l0,0
				c0.1,1.9,0.8,3.8,1.9,5.3c6.6,9.1,15.9,12.5,22.2,12.6l0,0h0.1v-0.1l0,0v0.1h0.1c0.1,0,0.1,0,0.1,0l0,0c2-0.1,4-0.3,5.9-0.9
				c6.6-1.9,12.3-6.1,16.3-11.7C63.6,55.2,64.3,53.3,64.4,51.4L64.4,51.4"/>
			<path class="st3" d="M43.2,62.4v0.4c0,0.3-0.2,0.7-0.5,0.8c-0.1,0-0.1,0-0.2,0c-0.5,0-0.5-0.5-0.9-0.5c-0.5,0-0.6,1.4-1.3,1.4
				l0,0l0,0l0,0l0,0l0,0l0,0c-0.7-0.1-0.8-1.4-1.2-1.4c-0.5,0-0.5,0.5-0.9,0.5c-0.1,0-0.1,0-0.2,0c-0.3-0.1-0.6-0.4-0.5-0.8v-0.4
				H43.2z"/>
			<path class="st3" d="M54.6,42.6l-0.3-2.1c0-0.3-0.3-0.7-0.7-0.7c-0.1,0-0.1,0-0.2,0.1c-2.3,0.9-8.8,3.8-8.1,5.7
				c0.7,1.3,6-0.1,8.6-1.9C54.4,43.4,54.6,43,54.6,42.6"/>
			<path class="st3" d="M26,42.6l0.3-2.1c0-0.3,0.3-0.7,0.7-0.7c0.1,0,0.1,0,0.2,0.1c2.3,0.9,8.8,3.8,8.1,5.7
				c-0.7,1.3-6-0.1-8.6-1.9C26.2,43.4,26,43,26,42.6"/>
			<path class="st4" d="M34.7,39.2c-1.3-0.1-4-0.4-4.9-0.9c-1.1-0.7-0.7-3.9,3.4-3.5c3.1,0.3,3.5,2.5,2.9,3.7
				C35.8,38.9,35.3,39.2,34.7,39.2"/>
			<path class="st4" d="M45.9,39.2c1.3-0.1,4-0.4,4.9-0.9c1.1-0.7,0.7-3.9-3.4-3.5c-3.1,0.3-3.5,2.5-2.9,3.7
				C44.8,38.9,45.3,39.2,45.9,39.2"/>
		</g>
	</g>
	<g>
		<path class="st4" d="M87.6,61.2l5.3-7.5c3.8,3,8.5,4.6,13.7,4.6c5.2,0,8.5-1.9,8.5-4.9c0-2.8-2.8-4.3-8.9-5
			c-12-1.3-17.4-5.4-17.4-13.4c0-8.1,7.3-13.6,18.1-13.6c6.2,0,12.2,1.8,16.7,5l-4.8,7.2c-3.3-2.3-7.3-3.6-11.4-3.6
			c-5.1,0-8.4,1.8-8.4,4.7c0,2.8,2.4,4.2,8.6,4.9c12,1.4,17.7,5.9,17.7,13.8c0,8.4-7.5,14-18.6,14C99.5,67.4,92.5,65.1,87.6,61.2z"
			/>
		<path class="st4" d="M162.6,48.8v17.6h-9.9v-17c0-4-2.1-6.4-5.6-6.4c-3.9,0-6.5,2.8-6.5,7v16.4h-9.9v-44h9.9v16.4
			c2.3-2.6,5.5-4.1,9.5-4.1C157.8,34.6,162.6,40.1,162.6,48.8z"/>
		<path class="st4" d="M168.9,26.9c0-3.1,2.4-5.4,5.8-5.4s5.8,2.3,5.8,5.4c0,3.1-2.4,5.3-5.8,5.3S168.9,30,168.9,26.9z M169.7,35.3
			h9.9v31.1h-9.9V35.3z"/>
		<path class="st4" d="M221.4,50.9c0,9.6-6.2,16.2-14.9,16.2c-4.2,0-7.7-1.5-10.3-4.3l-0.6,3.7H187v-44h9.9v15.9
			c2.5-2.3,5.8-3.6,9.6-3.6C215.2,34.7,221.4,41.3,221.4,50.9z M211.6,50.9c0-4.7-3-7.9-7.4-7.9c-4.3,0-7.4,3.2-7.4,7.9
			c0,4.7,3,7.9,7.4,7.9C208.6,58.7,211.6,55.5,211.6,50.9z"/>
		<path class="st4" d="M277.1,57.7v8.7h-34.3v-44h33.6V31h-23.6v8.9h22.3v8.3h-22.3v9.5H277.1z"/>
		<path class="st4" d="M281.3,50.9c0-9.8,6.9-16.3,17-16.3c4.7,0,8.9,1.7,12.2,4.8l-5.5,6c-1.7-1.6-3.9-2.5-6.2-2.5
			c-4.5,0-7.7,3.1-7.7,7.9s3.1,7.9,7.7,7.9c2.5,0,4.8-0.9,6.5-2.7l5.6,5.9c-3.5,3.5-7.7,5.2-12.5,5.2
			C287.9,67.1,281.3,60.9,281.3,50.9z"/>
		<path class="st4" d="M313,50.9c0-9.7,6.6-16.2,17.1-16.2c10.5,0,17.1,6.5,17.1,16.2c0,9.7-6.6,16.2-17.1,16.2
			C319.6,67.1,313,60.5,313,50.9z M337.4,50.9c0-4.5-2.9-7.9-7.3-7.9c-4.3,0-7.2,3.3-7.2,7.9c0,4.5,2.9,7.9,7.2,7.9
			C334.5,58.7,337.4,55.4,337.4,50.9z"/>
		<path class="st4" d="M350.3,63.1l3.8-6.8c3,1.8,7.3,2.9,11.2,2.9c2.6,0,4.1-0.8,4.1-2.2s-1.3-2.2-4.9-2.5
			c-7.9-0.4-12.9-4.2-12.9-9.9c0-6.2,5.4-10.1,14-10.1c5,0,9.6,1.3,12.6,3.3l-3.8,6.6c-2.3-1.3-5.2-2-8.4-2c-3.1,0-4.8,0.7-4.8,2.3
			c0,1.3,1.2,1.9,4.3,2.2c8.7,0.7,13.7,4,13.7,10.1c0,6.4-5.4,10.3-14.5,10.3C358.9,67.2,354.1,65.6,350.3,63.1z"/>
		<path class="st4" d="M416.1,35.3l-19.4,44.6h-10.5l6-13.9l-12.1-30.6h10.6l3.6,9.8l3.4,10.1l3.7-10.1l4-9.8H416.1z"/>
		<path class="st4" d="M416.9,63.1l3.8-6.8c3,1.8,7.3,2.9,11.2,2.9c2.6,0,4.1-0.8,4.1-2.2s-1.3-2.2-4.9-2.5
			c-7.9-0.4-12.9-4.2-12.9-9.9c0-6.2,5.4-10.1,14-10.1c5,0,9.6,1.3,12.6,3.3l-3.8,6.6c-2.3-1.3-5.2-2-8.4-2c-3.1,0-4.8,0.7-4.8,2.3
			c0,1.3,1.2,1.9,4.3,2.2c8.7,0.7,13.7,4,13.7,10.1c0,6.4-5.4,10.3-14.5,10.3C425.5,67.2,420.6,65.6,416.9,63.1z"/>
		<path class="st4" d="M473.2,65.2c-2.6,1.3-5.3,1.8-8.2,1.8c-6.4,0-11-3.1-11-12.1V43.2h-5.3v-7.9h5.3v-7.7l9.8-1.1v8.8h7.7v7.9
			h-7.7v11.8c0,2.6,1.4,3.7,3.5,3.7c1.2,0,2.6-0.4,3.6-0.9L473.2,65.2z"/>
		<path class="st4" d="M508.6,53.8h-22.8c0.6,3.1,3.5,5.3,8.1,5.3c3,0,6.2-0.9,8.3-2.6l5.2,5.5c-3.5,3.3-8.5,5.1-14,5.1
			c-10.9,0-17.6-6.2-17.6-16.2c0-9.7,6.7-16.3,16.7-16.3C504,34.6,510.4,42.4,508.6,53.8z M485.8,48.2h13.7
			c-0.3-3.6-2.8-5.7-6.8-5.7C488.8,42.4,486.2,44.5,485.8,48.2z"/>
		<path class="st4" d="M565,47.6v18.8h-9.9V48.8c0-3.7-1.8-5.9-4.9-5.9c-3.4,0-5.6,2.5-5.6,6.4v17h-9.8V48.8c0-3.7-1.8-5.9-4.8-5.9
			c-3.4,0-5.7,2.5-5.7,6.4v17h-9.9V35.3h8.6l0.6,3.5c2.2-2.6,5.3-4.2,8.9-4.2c4.1,0,7.4,1.8,9.2,4.8c2.5-3.2,6.1-4.8,10.7-4.8
			C560.2,34.6,565,39.5,565,47.6z"/>
	</g>
</g>
</svg>
