<svg width="476" height="150" viewBox="0 0 476 150" fill="none" xmlns="http://www.w3.org/2000/svg">
<g clip-path="url(#clip0_254_334)">
<path fill-rule="evenodd" clip-rule="evenodd" d="M84 52.594H91.638V97.42H84V52.594ZM145.883 81.262L114.854 51.903V97.419H122.198V68.257L153.227 98.112V52.594H145.883V81.262ZM193.088 72.451L185.819 69.822C182.073 68.51 179.942 67.194 179.942 63.91C179.942 60.26 183.322 58.507 187.874 58.507C193.161 58.507 197.275 60.478 201.019 63.326V55.513C197.422 53.178 192.795 51.863 187.727 51.863C179.428 51.863 172.525 56.17 172.525 64.055C172.525 71.428 177.078 74.641 183.1 76.831L189.636 79.168C193.675 80.701 195.952 82.089 195.952 85.592C195.952 89.607 192.353 91.433 187.212 91.433C181.926 91.433 177.004 89.536 172.891 86.249V94.207C176.05 96.398 181.19 98.15 187.212 98.15C196.394 98.15 203.369 93.622 203.369 85.446C203.369 78.949 200.139 75.006 193.088 72.451ZM220.576 52.594H228.213V97.42H220.576V52.594ZM269.105 52.595H251.809V97.42H269.105C282.398 97.42 290.991 88.659 290.991 75.006C290.991 61.355 282.397 52.595 269.105 52.595ZM268.811 90.632H259.448V59.311H268.811C278.282 59.311 283.351 65.37 283.351 75.006C283.351 84.569 278.283 90.632 268.811 90.632ZM308.325 97.42H335.679V90.632H315.815V76.74H333.622V70.096H315.815V59.31H335.679V52.594H308.325V97.42ZM375.318 78.949C382.442 77.854 385.801 73.546 385.801 66.026C385.801 57.266 379.78 52.594 370.452 52.594H354.094V97.42H361.731V79.241H367.166L382.864 97.42H391.53L375.318 78.949ZM361.732 72.889V59.164H370.305C375.372 59.164 378.237 61.865 378.237 66.026C378.237 70.188 375.372 72.889 370.305 72.889H361.732Z" fill="white"/>
</g>
<defs>
<clipPath id="clip0_254_334">
<rect width="308" height="48" fill="white" transform="translate(84 51)"/>
</clipPath>
</defs>
</svg>
